<svg viewBox="0 0 100 100" xmlns="http://www.w3.org/2000/svg">
  <circle cx="50" cy="50" r="48" fill="#ffffff" stroke="#0a3d75" stroke-width="4"/>
  <circle cx="50" cy="50" r="41" fill="none" stroke="#c9ccd1" stroke-width="1.5"/>
  <path d="M 24 58 L 29 44 C 30.5 40 33.5 38 38 38 L 62 38 C 66.5 38 69.5 40 71 44 L 76 58 L 76 66 C 76 68.2 74.2 70 72 70 L 68 70 C 65.8 70 64 68.2 64 66 L 64 63 L 36 63 L 36 66 C 36 68.2 34.2 70 32 70 L 28 70 C 25.8 70 24 68.2 24 66 Z"
        fill="#1c69d4"/>
  <path d="M 31 44 L 35.5 44.5 C 36.2 41.8 38.3 40 41 40 L 59 40 C 61.7 40 63.8 41.8 64.5 44.5 L 69 44 L 65.8 45.5 C 64.8 43.2 62.8 42 60 42 L 40 42 C 37.2 42 35.2 43.2 34.2 45.5 Z"
        fill="#eef2f7"/>
  <circle cx="33" cy="63" r="5" fill="#1a1f24"/>
  <circle cx="33" cy="63" r="2" fill="#c9ccd1"/>
  <circle cx="67" cy="63" r="5" fill="#1a1f24"/>
  <circle cx="67" cy="63" r="2" fill="#c9ccd1"/>
  <text x="50" y="86" text-anchor="middle" font-family="Arial, sans-serif" font-size="11" font-weight="700" fill="#0a3d75" letter-spacing="1">MICOCHE</text>
</svg>
